<?xml version="1.0" encoding="utf-8"?>
<!-- Generator: Adobe Illustrator 23.0.1, SVG Export Plug-In . SVG Version: 6.00 Build 0)  -->
<svg version="1.1" id="Layer_1" xmlns="http://www.w3.org/2000/svg" xmlns:xlink="http://www.w3.org/1999/xlink" x="0px" y="0px"
	 viewBox="0 0 102.79 137.29" style="enable-background:new 0 0 102.79 137.29;" xml:space="preserve">
<style type="text/css">
	.st0{fill:#F9B233;stroke:#000000;stroke-miterlimit:10;}
	.st1{fill:#683C11;stroke:#683C11;stroke-miterlimit:10;}
	.st2{fill:#CA9E67;stroke:#432918;stroke-miterlimit:10;}
	.st3{fill:#432918;stroke:#000000;stroke-miterlimit:10;}
	.st4{fill:#432918;stroke:#432918;stroke-miterlimit:10;}
	.st5{fill:#432918;}
	.st6{fill:#432918;stroke:#432918;stroke-width:10;stroke-linecap:round;stroke-linejoin:round;stroke-miterlimit:10;}
	.st7{fill:none;stroke:#432918;stroke-width:10;stroke-linecap:round;stroke-linejoin:round;stroke-miterlimit:10;}
</style>
<path class="st5" d="M95.84,132.01c-0.04,0.52-0.25,0.96-0.75,1.23c-2.61,1.35-5.21,2.72-7.82,4.05c-7.26-10.54-1.62,0.22-2.13-0.75
	c-1.71-3.26-3.41-6.53-5.12-9.79c-4.41-8.4-8.83-16.79-13.24-25.18c-2.13-4.04-4.25-8.08-6.38-12.13
	c-4.54-8.64-9.08-17.29-13.62-25.93c-2.32-4.41-4.63-8.83-6.95-13.25c-0.42-0.79-0.41-0.8-1.23-0.38
	c-6.87,3.45-13.81,6.77-20.82,9.93c-0.99,0.44-1.35,0.35-1.91-0.56c-3.63-5.95-6.94-12.08-9.97-18.37c-1.25-2.6-2.45-5.23-3.59-7.89
	c-0.4-0.93-0.27-1.34,0.62-1.85c5.17-2.97,10.36-5.92,15.62-8.74c1.52-0.82,3.03-1.64,4.57-2.43c0.48-0.25,0.57-0.5,0.31-0.99
	c-0.6-1.17-0.38-1.75,0.79-2.36c2.94-1.53,5.87-3.06,8.8-4.58c0.14-0.08,0.29-0.15,0.44-0.21c1.08-0.48,1.66-0.31,2.17,0.73
	c0.27,0.55,0.52,0.64,1.08,0.36C41.33,10.58,46,8.3,50.71,6.1c1.92-0.9,3.85-1.79,5.77-2.68C57.5,2.95,57.84,3.05,58.44,4
	c1.88,3.03,3.69,6.1,5.39,9.24c2.97,5.47,5.67,11.07,8.08,16.82c0.51,1.22,0.4,1.47-0.74,2.13c-6.37,3.7-12.76,7.35-19.29,10.77
	c-0.59,0.31-0.6,0.6-0.32,1.14c3.44,6.78,6.85,13.56,10.28,20.34c4.06,8.03,8.12,16.06,12.18,24.08
	c3.79,7.48,7.59,14.96,11.38,22.45c2.81,5.55,5.59,11.11,8.4,16.67c0.59,1.17,1.19,2.32,1.79,3.48
	C95.71,131.4,95.85,131.67,95.84,132.01z M21.71,33.19c0.35,0.02,0.61-0.17,0.91-0.32c2.11-1.01,3.95-2.57,6.28-3.14
	c0.3-0.08,0.6-0.27,0.85-0.47c1.04-0.83,2.1-1.62,3.35-2.12c0.19-0.08,0.46-0.11,0.49-0.41c-0.25-0.12-0.41,0.05-0.59,0.13
	c-3.69,1.78-7.18,3.95-10.84,5.79C21.93,32.76,21.64,32.85,21.71,33.19c-0.38-0.11-0.73,0.03-1.07,0.2
	c-1.94,0.95-3.76,2.16-5.79,2.93c-0.16,0.06-0.34,0.15-0.25,0.44c0.44-0.2,0.87-0.37,1.28-0.58C17.83,35.19,19.77,34.19,21.71,33.19
	z M44.24,32.51c-0.56,0.11-0.97,0.54-1.51,0.71c-2.68,0.9-5.12,2.34-7.62,3.62c-2.07,1.06-4,2.38-6.09,3.41
	c-1.92,0.95-3.85,1.89-5.75,2.88c-1.38,0.72-2.75,1.48-4.09,2.28c-1.85,1.09-3.92,1.73-5.73,2.9c-0.17,0.11-0.55,0.14-0.38,0.46
	c0.15,0.28,0.42,0.08,0.61-0.02c1.08-0.55,2.18-1.05,3.3-1.52c1.57-0.67,2.93-1.72,4.44-2.49c2.82-1.43,5.64-2.87,8.46-4.3
	c2.3-1.17,4.42-2.66,6.84-3.62c2.18-0.87,4.12-2.25,6.34-3.06c0.54-0.2,1.07-0.46,1.41-0.98c0.46-0.07,0.79-0.38,1.14-0.64
	c1.47-1.07,2.94-2.11,4.74-2.6c1.41-0.39,2.8-0.91,4.02-1.74c1.13-0.77,2.32-1.4,3.57-1.88c2.45-0.95,4.54-2.49,6.69-3.94
	c0.15-0.1,0.26-0.22,0.17-0.41c-0.1-0.22-0.3-0.22-0.48-0.13c-0.33,0.16-0.65,0.36-0.98,0.54c-0.68,0.37-1.11,1.08-1.76,1.46
	c-2.39,1.4-4.9,2.58-7.46,3.64c0.27-0.34,0.64-0.54,1.02-0.72c2.74-1.33,5.52-2.59,7.93-4.5c0.33-0.26,0.67-0.5,1.07-0.65
	c0.43-0.16,0.48-0.43,0.26-0.82c-0.31-0.53-0.64-0.38-1.04-0.12c-1.64,1.07-3.25,2.16-4.92,3.17c-2.36,1.42-4.91,2.45-7.39,3.62
	c-1.11,0.53-2.34,0.84-3.36,1.54c-3.09,2.11-6.44,3.72-9.84,5.25c-1.29,0.58-2.71,0.93-3.81,1.86c-0.91,0.77-1.86,1.47-2.9,2.05
	c-1.69,0.95-3.54,1.53-5.28,2.39c-1.69,0.84-3.4,1.61-4.95,2.73c-1.25,0.9-2.59,1.63-4.07,2.11c-1.59,0.52-3.09,1.29-4.55,2.12
	c-0.31,0.18-0.3,0.35-0.11,0.61c0.29,0.41,0.6,0.51,1.07,0.28c0.56-0.28,1.07-0.65,1.65-0.9c1.32-0.58,2.66-1.1,3.93-1.8
	c2.14-1.18,4.24-2.42,6.42-3.54c2.13-1.09,4.33-2.06,6.42-3.24c1.74-0.98,3.36-2.16,5.28-2.85c1.04-0.37,1.9-1.18,2.96-1.57
	c2.06-0.77,4.02-1.74,5.79-3.06c1.84-1.37,3.97-2.14,6.07-2.94c0.8-0.31,1.54-0.76,2.35-1.03c-0.86,0.79-1.76,1.49-2.95,1.73
	c-1.14,0.24-2.27,0.5-3.26,1.16c-0.81,0.54-1.63,1.07-2.43,1.62C45.08,31.86,44.58,32.07,44.24,32.51z M63.63,18.63
	c-0.09-0.43-0.37-0.53-0.77-0.34c-1.4,0.68-2.81,1.35-4.19,2.07c-1.71,0.89-3.39,1.83-5.2,2.56c-2.2,0.88-4.39,1.81-6.43,3.02
	c-1.24,0.73-2.33,1.7-3.65,2.31c-0.97,0.45-1.9,0.98-2.82,1.52c-1.4,0.83-2.81,1.64-4.4,2.08c-0.67,0.18-1.33,0.47-1.87,0.93
	c-1.73,1.48-3.64,2.67-5.73,3.56c-1.69,0.72-3.27,1.68-5.04,2.23c-0.99,0.31-1.96,0.72-2.76,1.45c-0.54,0.5-1.2,0.88-1.87,1.21
	c-2.51,1.22-5.11,2.26-7.51,3.7c-0.24,0.14-0.65,0.21-0.41,0.64c0.2,0.37,0.41,0.78,0.96,0.48c0.31-0.17,0.65-0.28,0.92-0.49
	c1.21-0.9,2.6-1.43,4-1.91c1.2-0.41,2.27-1.07,3.32-1.75c0.84-0.54,1.57-1.24,2.5-1.65c2.13-0.94,4.19-2.01,6.38-2.83
	c0.78-0.29,1.52-0.7,2.2-1.21c1.87-1.39,3.76-2.74,6.04-3.42c0.57-0.17,1.11-0.48,1.66-0.74c2.7-1.32,5.34-2.76,7.82-4.46
	c1.86-1.27,4.03-1.92,6.02-2.92c1.86-0.94,3.88-1.55,5.62-2.75c1.49-1.04,3.17-1.77,4.72-2.71C63.35,19.07,63.61,18.98,63.63,18.63z
	 M61.85,15.39c0.05-0.59-0.57-0.92-1.1-0.73c-2.85,1.05-5.4,2.7-8.18,3.92c-3.11,1.37-6.06,3.07-8.95,4.86
	c-1.26,0.78-2.66,1.23-3.97,1.88c-1.98,0.98-3.8,2.27-5.93,2.96c-0.66,0.21-1.25,0.61-1.79,1.07c-0.54,0.45-1.14,0.81-1.67,1.26
	c-0.73,0.61-1.7,0.63-2.48,1.06c-1.95,1.1-3.93,2.09-5.99,2.99c-2.06,0.9-3.9,2.27-6.02,3.07c-0.15,0.06-0.29,0.16-0.41,0.26
	c-0.98,0.82-2.09,1.4-3.26,1.86c-0.91,0.36-1.82,0.72-2.67,1.21c-0.42,0.24-0.39,0.51-0.23,0.87c0.18,0.4,0.44,0.31,0.75,0.17
	c3.09-1.37,5.97-3.14,9-4.62c1.27-0.62,2.44-1.48,3.81-1.89c0.97-0.29,1.85-0.76,2.73-1.24c1.11-0.6,2.06-1.55,3.28-1.84
	c1.39-0.33,2.44-1.06,3.45-1.99c0.72-0.67,1.44-1.38,2.52-1.48c0.69-0.06,1.28-0.39,1.88-0.72c0.97-0.54,1.95-1.08,2.95-1.58
	c1.1-0.55,2.28-0.96,3.32-1.6c3.02-1.85,6.14-3.52,9.29-5.14c1.79-0.92,3.83-1.32,5.44-2.65c1.1-0.91,2.52-1.17,3.8-1.72
	C61.57,15.54,61.83,15.56,61.85,15.39z M63.02,17.26c-0.13-0.36-0.35-0.61-0.82-0.41c-1.24,0.52-2.54,0.9-3.66,1.71
	c-0.81,0.58-1.71,1.03-2.66,1.38c-2.36,0.88-4.62,1.99-6.81,3.23c-1.4,0.79-2.79,1.6-4.16,2.43c-2.19,1.34-4.59,2.28-6.82,3.54
	c-0.63,0.35-1.26,0.82-1.94,0.93c-1.42,0.22-2.5,0.95-3.49,1.91c-0.79,0.76-1.61,1.47-2.76,1.66c-0.43,0.07-0.83,0.28-1.22,0.51
	c-1.33,0.78-2.62,1.61-4.05,2.19c-0.86,0.35-1.77,0.62-2.58,1.07c-3.04,1.66-6.07,3.34-9.2,4.84c-0.78,0.37-1.51,0.84-2.27,1.24
	c-0.45,0.24-0.51,0.58-0.26,0.98c0.27,0.44,0.56,0.15,0.82-0.02c1.79-1.15,3.72-2.03,5.65-2.9c1.47-0.67,2.96-1.25,4.19-2.33
	c0.31-0.27,0.71-0.45,1.07-0.65c1.16-0.65,2.54-0.74,3.7-1.43c1.02-0.6,2.1-1.1,3.17-1.63c1.62-0.8,3.27-1.57,4.58-2.89
	c0.5-0.51,1.08-1.03,1.8-1.16c2.54-0.47,4.56-2.06,6.82-3.12c1.49-0.7,2.96-1.49,4.22-2.57c1.19-1.03,2.61-1.66,4.03-2.19
	c4.26-1.61,8.24-3.8,12.29-5.85C62.84,17.61,63.03,17.55,63.02,17.26z M14.08,49.82c0.15-0.05,0.38-0.11,0.58-0.21
	c1.54-0.76,3.08-1.53,4.62-2.3c3.06-1.53,6.13-3.05,9.19-4.59c2.3-1.16,4.6-2.35,6.89-3.52c3.38-1.73,6.76-3.44,10.12-5.18
	c1.61-0.84,3.16-1.79,4.78-2.6c4.81-2.4,9.45-5.13,14.23-7.6c0.24-0.13,0.47-0.3,0.68-0.49c0.19-0.18,0.21-0.42,0.06-0.64
	c-0.16-0.23-0.38-0.12-0.56-0.02c-0.5,0.29-1.06,0.53-1.48,0.92c-0.96,0.89-2.13,1.4-3.29,1.94c-1.71,0.8-3.47,1.47-5.08,2.48
	c-0.96,0.6-1.94,1.19-3.04,1.55c-1.52,0.51-3.04,1.03-4.41,1.89c-1.34,0.84-2.47,1.97-3.92,2.65c-1.57,0.74-3.29,1.14-4.68,2.29
	c-0.99,0.82-2.32,1.06-3.46,1.64c-3.64,1.87-7.22,3.88-10.9,5.67c-2.43,1.19-4.86,2.35-7.05,3.95c-0.11,0.08-0.24,0.16-0.37,0.18
	c-1.18,0.22-2.07,1.04-3.13,1.52c-0.12,0.05-0.28,0.12-0.22,0.3C13.7,49.84,13.87,49.81,14.08,49.82z M8.29,39.29
	c0.17-0.06,0.28-0.1,0.39-0.14c1.99-0.95,4.01-1.83,5.86-3.09c1.94-1.33,4.19-2.13,6.27-3.22c2.41-1.26,4.82-2.54,7.14-3.96
	c1.34-0.82,2.85-1.26,4.23-2c1.76-0.95,3.37-2.19,5.28-2.86c1.94-0.68,3.84-1.41,5.49-2.7c1.35-1.05,3.02-1.53,4.49-2.39
	c2.44-1.44,4.85-2.98,7.52-3.99c0.68-0.26,1.29-0.65,1.77-1.21c-0.82,0.35-1.61,0.73-2.4,1.13c-3.58,1.8-7.15,3.61-10.74,5.39
	c-1.19,0.59-2.31,1.29-3.48,1.91c-0.69,0.37-1.51,0.53-2.17,0.94c-1.6,1.01-3.34,1.74-4.99,2.64c-1.52,0.83-3.1,1.6-4.64,2.4
	c-3.02,1.56-6.02,3.16-9.02,4.76c-3.49,1.86-6.98,3.75-10.47,5.63C8.58,38.67,8.28,38.81,8.29,39.29z M56.61,15.95
	c-0.65-0.12-1.04,0.3-1.5,0.45c-3.73,1.26-7.03,3.41-10.44,5.29c-2.45,1.35-4.95,2.55-7.43,3.84c-1.77,0.92-3.56,1.82-5.32,2.77
	c-1,0.54-1.79,1.45-2.91,1.79c-1.31,0.4-2.48,1.05-3.6,1.81c-2.17,1.47-4.85,1.92-6.95,3.54c-0.94,0.73-2.22,0.77-3.15,1.47
	c-1.84,1.39-3.9,2.34-6.04,3.16c-0.17,0.07-0.34,0.15-0.5,0.25c-0.09,0.05-0.12,0.15-0.05,0.24c0.03,0.04,0.14,0.06,0.18,0.04
	c1.4-0.74,3-1,4.35-1.83c3.17-1.97,6.44-3.74,9.9-5.16c0.82-0.34,1.57-0.81,2.33-1.27c0.85-0.52,1.65-1.21,2.61-1.46
	c1.14-0.29,2.14-0.79,3-1.56c0.88-0.78,1.81-1.46,3-1.69c0.16-0.03,0.3-0.12,0.45-0.19c2.54-1.37,5.16-2.58,7.77-3.82
	c1.71-0.81,3.24-1.99,4.96-2.84c2.59-1.28,5.02-2.85,7.75-3.86C55.58,16.71,56.13,16.47,56.61,15.95z M56.31,15.04
	c1.28-0.72,2.54-1.47,3.86-2.12C58.63,13.18,57.28,13.77,56.31,15.04z M8.52,39.71c0.25,0.19,0.42,0.07,0.58,0
	c1-0.4,1.95-0.93,3-1.24c0.31-0.09,0.58-0.28,0.87-0.45c0.12-0.07,0.28-0.17,0.19-0.32c-0.09-0.17-0.25-0.07-0.36,0.01
	c-0.62,0.44-1.36,0.6-2.03,0.91C10.02,38.97,9.2,39.15,8.52,39.71z"/>
</svg>
